<svg id="Livello_1" data-name="Livello 1" xmlns="http://www.w3.org/2000/svg" viewBox="0 0 98.84 68.06"><defs><style>.cls-1{fill:#e52421;}.cls-2{fill:#fff;}</style></defs><path class="cls-1" d="M207.71,263.32a305.1,305.1,0,0,1-66.46,0c-7.67-.92-14.92-7.89-15.52-15.15a218.34,218.34,0,0,1,0-34.12c.6-7.27,7.85-14.23,15.52-15.15a303.86,303.86,0,0,1,66.46,0c7.68.92,14.92,7.88,15.52,15.15a218.34,218.34,0,0,1,0,34.12C222.63,255.43,215.39,262.4,207.71,263.32Z" transform="translate(-125.06 -197.08)"/><path class="cls-2" d="M190.85,238.67a5.67,5.67,0,0,1-5.66,5.66H163.78a5.66,5.66,0,0,1-1.66-11.08,5.17,5.17,0,0,1-.23-1.51,5,5,0,0,1,5-5h1.26v-.8a8,8,0,0,1,7.55-8h1.4l-.15,1.4c-.26,2.49.36,2.95,1.3,3.65a5.12,5.12,0,0,1,2.4,3.77H182a5,5,0,0,1,4.8,6.54A5.68,5.68,0,0,1,190.85,238.67Z" transform="translate(-125.06 -197.08)"/></svg>