<svg id="Livello_1" data-name="Livello 1" xmlns="http://www.w3.org/2000/svg" viewBox="0 0 282.73 79.84"><defs><style>.cls-1{fill:#1d1d1b;}.cls-2{fill:#e52421;}.cls-3{fill:#fff;}</style></defs><polygon class="cls-1" points="107.59 64.38 116.08 64.38 116.08 36.52 124.48 36.52 124.48 28.65 116.08 28.65 116.08 11.59 128.04 11.59 128.04 3.72 107.59 3.72 107.59 64.38"/><rect class="cls-1" x="129.43" y="3.72" width="7.87" height="60.66"/><path class="cls-1" d="M259.73,234.54q-10.8,0-10.8,12.75v20.93q0,12.75,10.8,12.75t10.8-12.75V247.29Q270.53,234.54,259.73,234.54Zm2.93,35c0,2.78-1,4.17-2.93,4.17s-2.93-1.39-2.93-4.17V246c0-2.78,1-4.18,2.93-4.18s2.93,1.4,2.93,4.18Z" transform="translate(-108.2 -215.97)"/><path class="cls-1" d="M292.89,235.78a5.63,5.63,0,0,0-3.46-1.24q-3.33,0-7.6,4.88l-.18-4.26H274v60.65h7.87V276.08q4.26,4.89,7.64,4.89a5.23,5.23,0,0,0,2.4-.62,5,5,0,0,0,2.27-2q1.25-2,1.24-8V245.2a36.6,36.6,0,0,0-.26-5.24A6.28,6.28,0,0,0,292.89,235.78Zm-5.37,34.53c0,2.25-.69,3.37-2,3.37a6.27,6.27,0,0,1-3.64-1.82V243.65a6.3,6.3,0,0,1,3.64-1.83c1.36,0,2,1.13,2,3.38Z" transform="translate(-108.2 -215.97)"/><polygon class="cls-1" points="212.7 3.72 187.99 3.72 187.99 11.59 195.95 11.59 195.95 64.38 204.44 64.38 204.44 11.59 212.7 11.59 212.7 3.72"/><path class="cls-1" d="M332.92,271.86a6.29,6.29,0,0,1-3.65,1.82c-1.36,0-2-1.12-2-3.37V235.16h-7.87v35.46a32.55,32.55,0,0,0,.27,5.06,6.05,6.05,0,0,0,2.22,4.09,5.79,5.79,0,0,0,3.47,1.2q3.19,0,7.6-4.53l.66,3.91h7.2V235.16h-7.86Z" transform="translate(-108.2 -215.97)"/><path class="cls-1" d="M363.37,235.78a5.65,5.65,0,0,0-3.47-1.24q-3.37,0-7.64,4.88V219.69h-7.87v60.66h7.87v-4.27q4.22,4.89,7.6,4.89a5.48,5.48,0,0,0,2.44-.62,5,5,0,0,0,2.27-2q1.24-2,1.24-8V245.2a36.6,36.6,0,0,0-.26-5.24A6.4,6.4,0,0,0,363.37,235.78ZM358,270.31c0,2.25-.68,3.37-2.05,3.37a6.27,6.27,0,0,1-3.64-1.82V243.65a6.3,6.3,0,0,1,3.64-1.83c1.37,0,2.05,1.13,2.05,3.38Z" transform="translate(-108.2 -215.97)"/><path class="cls-1" d="M390.8,264.53h-7.86v3.82a9,9,0,0,1-.54,4,2.52,2.52,0,0,1-2.44,1.42q-2.9,0-2.89-4.67v-9.95H390.8V245.82A11.55,11.55,0,0,0,388,237.6a10,10,0,0,0-7.69-3.06q-5.86,0-8.67,3.6-2.4,3.06-2.4,9.06v21q0,5.86,2.45,8.93a9.78,9.78,0,0,0,8.17,3.82q6.18,0,9-4.13c1.4-2,2.09-4.68,2.09-8.09C390.93,268.13,390.89,266.72,390.8,264.53Zm-13.73-19.37q0-3.34,2.93-3.34t2.94,3.34v7.64h-5.87Z" transform="translate(-108.2 -215.97)"/><path class="cls-2" d="M190.85,282.21a303.86,303.86,0,0,1-66.46,0c-7.67-.92-14.92-7.88-15.52-15.15a218.34,218.34,0,0,1,0-34.12c.6-7.27,7.85-14.23,15.52-15.15a303.86,303.86,0,0,1,66.46,0c7.68.92,14.92,7.88,15.52,15.15a218.34,218.34,0,0,1,0,34.12C205.77,274.32,198.53,281.29,190.85,282.21Z" transform="translate(-108.2 -215.97)"/><path class="cls-3" d="M174,257.56a5.67,5.67,0,0,1-5.66,5.66H146.92a5.66,5.66,0,0,1-1.66-11.08,5.17,5.17,0,0,1-.23-1.51,5,5,0,0,1,5-5h1.26v-.8a8,8,0,0,1,7.55-8h1.4l-.15,1.39c-.26,2.49.36,3,1.3,3.65a5.14,5.14,0,0,1,2.4,3.77h1.35a5,5,0,0,1,4.8,6.54A5.7,5.7,0,0,1,174,257.56Z" transform="translate(-108.2 -215.97)"/></svg>